<?xml version="1.0" encoding="UTF-8"?>
<!DOCTYPE svg PUBLIC "-//W3C//DTD SVG 1.1//EN" "http://www.w3.org/Graphics/SVG/1.1/DTD/svg11.dtd">
<svg xmlns="http://www.w3.org/2000/svg" version="1.1" width="4073px" height="4167px" style="shape-rendering:geometricPrecision; text-rendering:geometricPrecision; image-rendering:optimizeQuality; fill-rule:evenodd; clip-rule:evenodd" xmlns:xlink="http://www.w3.org/1999/xlink">
<g><path style="opacity:0.996" fill="#fefffe" d="M 2635.5,672.5 C 2700.08,668.208 2762.08,678.708 2821.5,704C 2881.95,733.454 2925.79,778.954 2953,840.5C 2972.66,886.799 2983.32,935.132 2985,985.5C 2989.41,1052.73 2979.41,1117.73 2955,1180.5C 2938.7,1226.45 2915.7,1268.45 2886,1306.5C 2844.52,1355.32 2798.02,1398.49 2746.5,1436C 2727.23,1449.45 2708.23,1463.12 2689.5,1477C 2880.11,1851.05 3071.11,2224.89 3262.5,2598.5C 3276.1,2578.67 3287.93,2557.67 3298,2535.5C 3339.59,2441.38 3369.93,2343.72 3389,2242.5C 3409.4,2112.23 3416.4,1981.23 3410,1849.5C 3407.76,1798.82 3400.76,1748.82 3389,1699.5C 3377.69,1652.88 3357.35,1610.88 3328,1573.5C 3292.4,1534.61 3248.56,1510.11 3196.5,1500C 3150.3,1490.72 3103.63,1486.22 3056.5,1486.5C 3056.5,1470.17 3056.5,1453.83 3056.5,1437.5C 3287.17,1437.5 3517.83,1437.5 3748.5,1437.5C 3748.83,1453.85 3748.5,1470.18 3747.5,1486.5C 3699.42,1494.52 3652.09,1505.69 3605.5,1520C 3569.31,1534.53 3541.47,1558.69 3522,1592.5C 3507.37,1620.38 3496.71,1649.71 3490,1680.5C 3480.05,1731.06 3473.38,1782.06 3470,1833.5C 3465.5,1926.66 3458.83,2019.66 3450,2112.5C 3439.75,2213.67 3421.42,2313.34 3395,2411.5C 3375.95,2484.67 3348.28,2554.34 3312,2620.5C 3305.03,2632.3 3297.86,2643.97 3290.5,2655.5C 3342.87,2747.37 3395.03,2839.37 3447,2931.5C 3460.97,2953.1 3476.64,2973.43 3494,2992.5C 3515.13,3014.48 3540.96,3026.98 3571.5,3030C 3617.14,3036.24 3653.97,3021.41 3682,2985.5C 3715.42,2941.3 3736.42,2891.63 3745,2836.5C 3749.15,2810.98 3750.82,2785.32 3750,2759.5C 3749.19,2744.62 3746.02,2730.28 3740.5,2716.5C 3756.85,2716.17 3773.18,2716.5 3789.5,2717.5C 3797.73,2738.75 3800.9,2760.75 3799,2783.5C 3799.67,2876.2 3774.34,2960.86 3723,3037.5C 3685.65,3088.53 3639.82,3130.03 3585.5,3162C 3542.69,3184.05 3497.36,3198.05 3449.5,3204C 3405.31,3209.21 3360.98,3210.88 3316.5,3209C 3262.53,3207.26 3210.86,3195.59 3161.5,3174C 3145.17,3166.17 3129.83,3156.84 3115.5,3146C 3081.41,3119.84 3049.58,3091 3020,3059.5C 3005.93,3042.77 2991.93,3026.11 2978,3009.5C 2942.75,3037.42 2906.91,3064.59 2870.5,3091C 2796.96,3140.09 2716.63,3173.42 2629.5,3191C 2580.36,3201.31 2530.69,3207.31 2480.5,3209C 2390.94,3212.77 2301.94,3207.44 2213.5,3193C 2117.44,3177.43 2028.44,3143.77 1946.5,3092C 1805.84,3006.66 1706.68,2886.83 1649,2732.5C 1624.37,2658.02 1608.7,2581.68 1602,2503.5C 1592.74,2369.21 1622.74,2244.54 1692,2129.5C 1724.03,2076.13 1760.7,2026.13 1802,1979.5C 1866.84,1909.29 1937.67,1846.46 2014.5,1791C 2095.96,1733.77 2178.96,1678.77 2263.5,1626C 2233.91,1549.64 2206.41,1472.48 2181,1394.5C 2127.24,1217.05 2153.91,1053.05 2261,902.5C 2327.92,808.906 2414.75,740.739 2521.5,698C 2558.51,684.411 2596.51,675.911 2635.5,672.5 Z M 2698.5,721.5 C 2762.25,717.126 2815.75,738.126 2859,784.5C 2889.55,820.919 2911.21,862.252 2924,908.5C 2944.36,982.517 2945.69,1056.85 2928,1131.5C 2907.78,1197.64 2874.45,1255.97 2828,1306.5C 2805.3,1330.89 2780.8,1353.05 2754.5,1373C 2725.58,1393.38 2696.75,1413.88 2668,1434.5C 2612.87,1343.24 2566.54,1247.57 2529,1147.5C 2515.53,1109.6 2504.86,1070.94 2497,1031.5C 2488.77,984.884 2488.43,938.217 2496,891.5C 2506.19,838.265 2532.36,794.765 2574.5,761C 2611.8,735.067 2653.13,721.9 2698.5,721.5 Z M 2280.5,1665.5 C 2284.89,1672.61 2289.06,1679.94 2293,1687.5C 2313.85,1734.19 2335.51,1780.53 2358,1826.5C 2525,2150.17 2692,2473.83 2859,2797.5C 2877.03,2837.23 2897.36,2875.56 2920,2912.5C 2931.8,2930.61 2943.97,2948.44 2956.5,2966C 2899.76,3014.07 2838.43,3055.73 2772.5,3091C 2714.25,3116.8 2653.58,3125.13 2590.5,3116C 2545.48,3106.48 2504.81,3087.82 2468.5,3060C 2416.11,3019.95 2369.28,2974.11 2328,2922.5C 2258.45,2832.15 2199.45,2734.82 2151,2630.5C 2094.85,2512.37 2051.18,2389.71 2020,2262.5C 2010.96,2224.24 2004.29,2185.58 2000,2146.5C 1994.75,2083.47 2000.42,2021.47 2017,1960.5C 2033.66,1908.15 2060.33,1861.82 2097,1821.5C 2115.56,1800.93 2135.4,1781.77 2156.5,1764C 2197.44,1730.54 2238.78,1697.71 2280.5,1665.5 Z"/></g>
<g><path style="opacity:0.993" fill="#fefffe" d="M 19.5,1206.5 C 244.5,1206.5 469.5,1206.5 694.5,1206.5C 694.5,1219.83 694.5,1233.17 694.5,1246.5C 617.497,1246.17 540.497,1246.5 463.5,1247.5C 567.185,1537.06 671.351,1826.39 776,2115.5C 872.5,1886 969,1656.5 1065.5,1427C 1042.36,1366.57 1019.02,1306.24 995.5,1246C 956.501,1245.5 917.501,1245.33 878.5,1245.5C 878.5,1232.5 878.5,1219.5 878.5,1206.5C 1064.5,1206.5 1250.5,1206.5 1436.5,1206.5C 1436.5,1219.83 1436.5,1233.17 1436.5,1246.5C 1374.16,1246.17 1311.83,1246.5 1249.5,1247.5C 1357.17,1534.84 1464.84,1822.18 1572.5,2109.5C 1689.12,1821.8 1805.46,1533.97 1921.5,1246C 1833.83,1245.5 1746.17,1245.33 1658.5,1245.5C 1658.5,1232.5 1658.5,1219.5 1658.5,1206.5C 1810.83,1206.5 1963.17,1206.5 2115.5,1206.5C 2115.5,1219.5 2115.5,1232.5 2115.5,1245.5C 2066.16,1245.17 2016.83,1245.5 1967.5,1246.5C 1800.49,1663.87 1633.49,2081.2 1466.5,2498.5C 1339.19,2161.06 1212.35,1823.39 1086,1485.5C 944.805,1822.09 803.805,2158.75 663,2495.5C 662.632,2496.91 661.799,2497.91 660.5,2498.5C 509.704,2081.11 359.704,1663.45 210.5,1245.5C 146.833,1245.5 83.1667,1245.5 19.5,1245.5C 19.5,1232.5 19.5,1219.5 19.5,1206.5 Z"/></g>
<g><path style="opacity:0.965" fill="#fefffe" d="M 1050.5,2481.5 C 1069.61,2478.64 1080.27,2486.64 1082.5,2505.5C 1080.29,2524.52 1069.62,2532.35 1050.5,2529C 1036.93,2522.7 1031.77,2512.2 1035,2497.5C 1036.41,2494.34 1038.08,2491.34 1040,2488.5C 1043.31,2485.77 1046.81,2483.44 1050.5,2481.5 Z"/></g>
<g><path style="opacity:0.967" fill="#fefffe" d="M 921.5,2548.5 C 922.5,2548.5 923.5,2548.5 924.5,2548.5C 924.5,2569.17 924.5,2589.83 924.5,2610.5C 945.833,2610.5 967.167,2610.5 988.5,2610.5C 988.5,2612.5 988.5,2614.5 988.5,2616.5C 967.167,2616.5 945.833,2616.5 924.5,2616.5C 924.333,2669.83 924.5,2723.17 925,2776.5C 928.384,2798.61 940.884,2806.78 962.5,2801C 976.851,2793.48 985.184,2781.65 987.5,2765.5C 990.937,2765.24 993.604,2766.41 995.5,2769C 989.35,2797.32 971.85,2810.82 943,2809.5C 928.673,2810.47 915.173,2807.64 902.5,2801C 892.138,2793.12 886.304,2782.62 885,2769.5C 884.5,2718.5 884.333,2667.5 884.5,2616.5C 872.833,2616.5 861.167,2616.5 849.5,2616.5C 849.5,2614.5 849.5,2612.5 849.5,2610.5C 861.167,2610.5 872.833,2610.5 884.5,2610.5C 884.167,2590.82 884.5,2571.16 885.5,2551.5C 893.586,2554.4 901.919,2555.23 910.5,2554C 914.776,2553.2 918.443,2551.36 921.5,2548.5 Z"/></g>
<g><path style="opacity:0.957" fill="#fefffe" d="M 109.5,2604.5 C 129.92,2602.35 149.586,2605.18 168.5,2613C 184.227,2620.05 194.06,2631.88 198,2648.5C 200.101,2657.85 197.935,2666.02 191.5,2673C 189.112,2674.86 186.446,2676.19 183.5,2677C 173.992,2678.64 164.992,2677.31 156.5,2673C 154.959,2671.42 153.792,2669.59 153,2667.5C 152.333,2663.5 152.333,2659.5 153,2655.5C 156.595,2646.47 158.261,2637.13 158,2627.5C 153.105,2618.78 145.605,2613.62 135.5,2612C 106.586,2606.27 86.4196,2616.77 75,2643.5C 69.6935,2658.03 66.6935,2673.03 66,2688.5C 64.993,2707.9 65.6597,2727.23 68,2746.5C 75.6425,2792.92 102.476,2810.75 148.5,2800C 171.472,2792.36 186.306,2776.86 193,2753.5C 195.877,2752.17 198.711,2752.34 201.5,2754C 189.699,2791.62 164.032,2810.12 124.5,2809.5C 88.0782,2810.2 58.5782,2796.53 36,2768.5C 20.8065,2743.51 15.8065,2716.51 21,2687.5C 32.826,2640.86 62.326,2613.19 109.5,2604.5 Z"/></g>
<g><path style="opacity:0.961" fill="#fefffe" d="M 507.5,2604.5 C 543.453,2600.41 571.953,2612.74 593,2641.5C 602.175,2656.87 606.342,2673.53 605.5,2691.5C 559.167,2691.5 512.833,2691.5 466.5,2691.5C 466.333,2704.5 466.5,2717.5 467,2730.5C 467.157,2748.8 471.824,2765.8 481,2781.5C 488.829,2793 499.662,2799.84 513.5,2802C 553.878,2807.33 580.878,2790.99 594.5,2753C 597.466,2752.1 600.133,2752.6 602.5,2754.5C 590.389,2792.1 564.556,2810.44 525,2809.5C 485.701,2810.69 455.368,2795.02 434,2762.5C 420,2736.5 416.667,2709.16 424,2680.5C 437.464,2639.2 465.298,2613.86 507.5,2604.5 Z M 509.5,2611.5 C 539.721,2607.23 556.221,2620.23 559,2650.5C 559.769,2662.2 559.603,2673.87 558.5,2685.5C 528.167,2685.5 497.833,2685.5 467.5,2685.5C 467.877,2666.44 472.377,2648.44 481,2631.5C 487.929,2620.97 497.429,2614.3 509.5,2611.5 Z"/></g>
<g><path style="opacity:0.959" fill="#fefffe" d="M 711.5,2604.5 C 726.602,2603.88 741.602,2604.72 756.5,2607C 782.704,2613.87 797.538,2630.7 801,2657.5C 801.021,2701.88 801.687,2746.21 803,2790.5C 805.284,2797.11 809.951,2800.11 817,2799.5C 824.662,2799.59 831.495,2797.25 837.5,2792.5C 839.041,2794.2 840.375,2796.04 841.5,2798C 835.301,2803.77 827.967,2807.43 819.5,2809C 808.034,2810.12 796.7,2809.46 785.5,2807C 772.485,2800.51 764.652,2790.01 762,2775.5C 753.939,2794.88 739.439,2806.05 718.5,2809C 707.5,2809.67 696.5,2809.67 685.5,2809C 649.834,2803.2 636.668,2782.7 646,2747.5C 649.003,2740.83 653.169,2735 658.5,2730C 665.726,2725.22 673.392,2721.22 681.5,2718C 702.167,2712.33 722.5,2705.67 742.5,2698C 754.181,2693.48 760.681,2684.98 762,2672.5C 763.122,2658.39 762.455,2644.39 760,2630.5C 756.978,2620.15 750.145,2613.98 739.5,2612C 730.447,2611.15 721.447,2611.49 712.5,2613C 700.15,2615.56 694.483,2623.06 695.5,2635.5C 696.774,2644.8 697.274,2654.14 697,2663.5C 693.266,2671.54 686.932,2674.87 678,2673.5C 671.814,2674.22 666.147,2672.88 661,2669.5C 653.176,2646.31 659.676,2628.14 680.5,2615C 690.38,2609.79 700.713,2606.29 711.5,2604.5 Z M 760.5,2695.5 C 761.662,2713.33 761.829,2731.33 761,2749.5C 760.436,2766.22 754.27,2780.38 742.5,2792C 731.508,2799.09 719.508,2801.43 706.5,2799C 694.926,2795.76 687.759,2788.26 685,2776.5C 679.063,2753.29 685.897,2735.12 705.5,2722C 722.248,2715.2 738.915,2708.2 755.5,2701C 757.373,2699.3 759.04,2697.46 760.5,2695.5 Z"/></g>
<g><path style="opacity:0.961" fill="#fefffe" d="M 1445.5,2604.5 C 1481.45,2600.41 1509.95,2612.74 1531,2641.5C 1540.17,2656.87 1544.34,2673.53 1543.5,2691.5C 1497.17,2691.5 1450.83,2691.5 1404.5,2691.5C 1404.33,2704.5 1404.5,2717.5 1405,2730.5C 1405.16,2748.8 1409.82,2765.8 1419,2781.5C 1426.83,2793 1437.66,2799.84 1451.5,2802C 1491.88,2807.33 1518.88,2790.99 1532.5,2753C 1535.47,2752.1 1538.13,2752.6 1540.5,2754.5C 1528.39,2792.1 1502.56,2810.44 1463,2809.5C 1423.7,2810.69 1393.37,2795.02 1372,2762.5C 1358,2736.5 1354.67,2709.16 1362,2680.5C 1375.46,2639.2 1403.3,2613.86 1445.5,2604.5 Z M 1447.5,2611.5 C 1477.72,2607.23 1494.22,2620.23 1497,2650.5C 1497.77,2662.2 1497.6,2673.87 1496.5,2685.5C 1466.17,2685.5 1435.83,2685.5 1405.5,2685.5C 1405.88,2666.44 1410.38,2648.44 1419,2631.5C 1425.93,2620.97 1435.43,2614.3 1447.5,2611.5 Z"/></g>
<g><path style="opacity:0.968" fill="#fefffe" d="M 349.5,2605.5 C 367.333,2602.07 382.5,2606.74 395,2619.5C 401.142,2629.66 403.142,2640.66 401,2652.5C 399.614,2660.22 395.114,2665.05 387.5,2667C 381.167,2667.67 374.833,2667.67 368.5,2667C 361.522,2665.19 358.189,2660.69 358.5,2653.5C 359.817,2647.04 361.651,2640.71 364,2634.5C 365.447,2619.28 358.613,2613.12 343.5,2616C 333.631,2619.53 325.797,2625.7 320,2634.5C 310.156,2649.7 304.489,2666.36 303,2684.5C 302.5,2721.83 302.333,2759.17 302.5,2796.5C 315.5,2796.5 328.5,2796.5 341.5,2796.5C 341.5,2798.83 341.5,2801.17 341.5,2803.5C 303.833,2803.5 266.167,2803.5 228.5,2803.5C 228.5,2801.17 228.5,2798.83 228.5,2796.5C 239.833,2796.5 251.167,2796.5 262.5,2796.5C 262.5,2736.5 262.5,2676.5 262.5,2616.5C 251.167,2616.5 239.833,2616.5 228.5,2616.5C 228.5,2614.5 228.5,2612.5 228.5,2610.5C 252.833,2610.5 277.167,2610.5 301.5,2610.5C 301.333,2625.17 301.5,2639.84 302,2654.5C 309.011,2629.33 324.845,2612.99 349.5,2605.5 Z"/></g>
<g><path style="opacity:0.973" fill="#fefffe" d="M 1004.5,2610.5 C 1029.5,2610.5 1054.5,2610.5 1079.5,2610.5C 1079.5,2672.5 1079.5,2734.5 1079.5,2796.5C 1090.83,2796.5 1102.17,2796.5 1113.5,2796.5C 1113.5,2798.83 1113.5,2801.17 1113.5,2803.5C 1077.17,2803.5 1040.83,2803.5 1004.5,2803.5C 1004.5,2801.17 1004.5,2798.83 1004.5,2796.5C 1016.17,2796.5 1027.83,2796.5 1039.5,2796.5C 1039.5,2736.5 1039.5,2676.5 1039.5,2616.5C 1027.83,2616.5 1016.17,2616.5 1004.5,2616.5C 1004.5,2614.5 1004.5,2612.5 1004.5,2610.5 Z"/></g>
<g><path style="opacity:0.959" fill="#fefffe" d="M 1117.5,2610.5 C 1154.5,2610.5 1191.5,2610.5 1228.5,2610.5C 1228.5,2612.83 1228.5,2615.17 1228.5,2617.5C 1216.16,2617.33 1203.83,2617.5 1191.5,2618C 1210.48,2663.93 1229.64,2709.76 1249,2755.5C 1268.7,2709.26 1288.54,2663.09 1308.5,2617C 1296.17,2616.5 1283.84,2616.33 1271.5,2616.5C 1271.5,2614.5 1271.5,2612.5 1271.5,2610.5C 1294.83,2610.5 1318.17,2610.5 1341.5,2610.5C 1341.5,2612.5 1341.5,2614.5 1341.5,2616.5C 1333.17,2616.5 1324.83,2616.5 1316.5,2616.5C 1288.73,2684.04 1260.4,2751.37 1231.5,2818.5C 1230.2,2817.91 1229.37,2816.91 1229,2815.5C 1202.44,2749.39 1175.61,2683.39 1148.5,2617.5C 1138.19,2616.5 1127.85,2616.17 1117.5,2616.5C 1117.5,2614.5 1117.5,2612.5 1117.5,2610.5 Z"/></g>
<g><path style="opacity:0.973" fill="#fefffe" d="M 479.5,2911.5 C 504.5,2911.5 529.5,2911.5 554.5,2911.5C 554.5,3017.5 554.5,3123.5 554.5,3229.5C 565.833,3229.5 577.167,3229.5 588.5,3229.5C 588.5,3231.83 588.5,3234.17 588.5,3236.5C 552.167,3236.5 515.833,3236.5 479.5,3236.5C 479.5,3234.17 479.5,3231.83 479.5,3229.5C 491.167,3229.5 502.833,3229.5 514.5,3229.5C 514.5,3125.83 514.5,3022.17 514.5,2918.5C 502.833,2918.5 491.167,2918.5 479.5,2918.5C 479.5,2916.17 479.5,2913.83 479.5,2911.5 Z"/></g>
<g><path style="opacity:0.973" fill="#fefffe" d="M 612.5,2911.5 C 637.5,2911.5 662.5,2911.5 687.5,2911.5C 687.5,3017.5 687.5,3123.5 687.5,3229.5C 698.833,3229.5 710.167,3229.5 721.5,3229.5C 721.5,3231.83 721.5,3234.17 721.5,3236.5C 685.167,3236.5 648.833,3236.5 612.5,3236.5C 612.5,3234.17 612.5,3231.83 612.5,3229.5C 624.167,3229.5 635.833,3229.5 647.5,3229.5C 647.5,3125.83 647.5,3022.17 647.5,2918.5C 635.833,2918.5 624.167,2918.5 612.5,2918.5C 612.5,2916.17 612.5,2913.83 612.5,2911.5 Z"/></g>
<g><path style="opacity:0.965" fill="#fefffe" d="M 1384.5,2914.5 C 1403.61,2911.64 1414.27,2919.64 1416.5,2938.5C 1414.29,2957.52 1403.62,2965.35 1384.5,2962C 1370.93,2955.7 1365.77,2945.2 1369,2930.5C 1370.41,2927.34 1372.08,2924.34 1374,2921.5C 1377.31,2918.77 1380.81,2916.44 1384.5,2914.5 Z"/></g>
<g><path style="opacity:0.967" fill="#fefffe" d="M 1255.5,2981.5 C 1256.5,2981.5 1257.5,2981.5 1258.5,2981.5C 1258.5,3002.17 1258.5,3022.83 1258.5,3043.5C 1279.83,3043.5 1301.17,3043.5 1322.5,3043.5C 1322.5,3045.5 1322.5,3047.5 1322.5,3049.5C 1301.17,3049.5 1279.83,3049.5 1258.5,3049.5C 1258.33,3102.83 1258.5,3156.17 1259,3209.5C 1262.38,3231.61 1274.88,3239.78 1296.5,3234C 1310.85,3226.48 1319.18,3214.65 1321.5,3198.5C 1324.94,3198.24 1327.6,3199.41 1329.5,3202C 1323.35,3230.32 1305.85,3243.82 1277,3242.5C 1262.67,3243.47 1249.17,3240.64 1236.5,3234C 1226.14,3226.12 1220.3,3215.62 1219,3202.5C 1218.5,3151.5 1218.33,3100.5 1218.5,3049.5C 1206.83,3049.5 1195.17,3049.5 1183.5,3049.5C 1183.5,3047.5 1183.5,3045.5 1183.5,3043.5C 1195.17,3043.5 1206.83,3043.5 1218.5,3043.5C 1218.17,3023.82 1218.5,3004.16 1219.5,2984.5C 1227.59,2987.4 1235.92,2988.23 1244.5,2987C 1248.78,2986.2 1252.44,2984.36 1255.5,2981.5 Z"/></g>
<g><path style="opacity:0.957" fill="#fefffe" d="M 109.5,3037.5 C 129.92,3035.35 149.586,3038.18 168.5,3046C 184.227,3053.05 194.06,3064.88 198,3081.5C 200.101,3090.85 197.935,3099.02 191.5,3106C 189.112,3107.86 186.446,3109.19 183.5,3110C 173.992,3111.64 164.992,3110.31 156.5,3106C 154.959,3104.42 153.792,3102.59 153,3100.5C 152.333,3096.5 152.333,3092.5 153,3088.5C 156.595,3079.47 158.261,3070.13 158,3060.5C 153.105,3051.78 145.605,3046.62 135.5,3045C 106.586,3039.27 86.4196,3049.77 75,3076.5C 69.6935,3091.03 66.6935,3106.03 66,3121.5C 64.993,3140.9 65.6597,3160.23 68,3179.5C 75.6425,3225.92 102.476,3243.75 148.5,3233C 171.472,3225.36 186.306,3209.86 193,3186.5C 195.877,3185.17 198.711,3185.34 201.5,3187C 189.699,3224.62 164.032,3243.12 124.5,3242.5C 88.0782,3243.2 58.5782,3229.53 36,3201.5C 20.8065,3176.51 15.8065,3149.51 21,3120.5C 32.826,3073.86 62.326,3046.19 109.5,3037.5 Z"/></g>
<g><path style="opacity:0.963" fill="#fefffe" d="M 328.5,3037.5 C 380.904,3035.78 418.404,3058.44 441,3105.5C 455.784,3158.43 439.95,3199.6 393.5,3229C 342.059,3253.77 297.225,3244.93 259,3202.5C 233.21,3168.79 229.543,3132.79 248,3094.5C 266.203,3063.31 293.037,3044.31 328.5,3037.5 Z M 329.5,3044.5 C 345.874,3042.25 361.207,3045.09 375.5,3053C 389.621,3066.41 397.454,3082.91 399,3102.5C 402.536,3129.55 402.203,3156.55 398,3183.5C 390.955,3226.29 366.121,3243.12 323.5,3234C 307.131,3229.3 296.297,3218.8 291,3202.5C 287.562,3192.42 285.229,3182.08 284,3171.5C 281.798,3147.8 282.131,3124.13 285,3100.5C 287.043,3083.59 293.543,3068.76 304.5,3056C 311.984,3050.13 320.318,3046.29 329.5,3044.5 Z"/></g>
<g><path style="opacity:0.961" fill="#fefffe" d="M 841.5,3037.5 C 877.453,3033.41 905.953,3045.74 927,3074.5C 936.175,3089.87 940.342,3106.53 939.5,3124.5C 893.167,3124.5 846.833,3124.5 800.5,3124.5C 800.333,3137.5 800.5,3150.5 801,3163.5C 801.157,3181.8 805.824,3198.8 815,3214.5C 822.829,3226 833.662,3232.84 847.5,3235C 887.878,3240.33 914.878,3223.99 928.5,3186C 931.466,3185.1 934.133,3185.6 936.5,3187.5C 924.389,3225.1 898.556,3243.44 859,3242.5C 819.701,3243.69 789.368,3228.02 768,3195.5C 754,3169.5 750.667,3142.16 758,3113.5C 771.464,3072.2 799.298,3046.86 841.5,3037.5 Z M 843.5,3044.5 C 873.721,3040.23 890.221,3053.23 893,3083.5C 893.769,3095.2 893.603,3106.87 892.5,3118.5C 862.167,3118.5 831.833,3118.5 801.5,3118.5C 801.877,3099.44 806.377,3081.44 815,3064.5C 821.929,3053.97 831.429,3047.3 843.5,3044.5 Z"/></g>
<g><path style="opacity:0.957" fill="#fefffe" d="M 1069.5,3037.5 C 1089.92,3035.35 1109.59,3038.18 1128.5,3046C 1144.23,3053.05 1154.06,3064.88 1158,3081.5C 1160.1,3090.85 1157.93,3099.02 1151.5,3106C 1149.11,3107.86 1146.45,3109.19 1143.5,3110C 1133.99,3111.64 1124.99,3110.31 1116.5,3106C 1114.96,3104.42 1113.79,3102.59 1113,3100.5C 1112.33,3096.5 1112.33,3092.5 1113,3088.5C 1116.59,3079.47 1118.26,3070.13 1118,3060.5C 1113.1,3051.78 1105.6,3046.62 1095.5,3045C 1066.59,3039.27 1046.42,3049.77 1035,3076.5C 1029.69,3091.03 1026.69,3106.03 1026,3121.5C 1024.99,3140.9 1025.66,3160.23 1028,3179.5C 1035.64,3225.92 1062.48,3243.75 1108.5,3233C 1131.47,3225.36 1146.31,3209.86 1153,3186.5C 1155.88,3185.17 1158.71,3185.34 1161.5,3187C 1149.7,3224.62 1124.03,3243.12 1084.5,3242.5C 1048.08,3243.2 1018.58,3229.53 996,3201.5C 980.806,3176.51 975.806,3149.51 981,3120.5C 992.826,3073.86 1022.33,3046.19 1069.5,3037.5 Z"/></g>
<g><path style="opacity:0.961" fill="#fefffe" d="M 1779.5,3037.5 C 1815.45,3033.41 1843.95,3045.74 1865,3074.5C 1874.17,3089.87 1878.34,3106.53 1877.5,3124.5C 1831.17,3124.5 1784.83,3124.5 1738.5,3124.5C 1738.33,3137.5 1738.5,3150.5 1739,3163.5C 1739.16,3181.8 1743.82,3198.8 1753,3214.5C 1760.83,3226 1771.66,3232.84 1785.5,3235C 1825.88,3240.33 1852.88,3223.99 1866.5,3186C 1869.47,3185.1 1872.13,3185.6 1874.5,3187.5C 1862.39,3225.1 1836.56,3243.44 1797,3242.5C 1757.7,3243.69 1727.37,3228.02 1706,3195.5C 1692,3169.5 1688.67,3142.16 1696,3113.5C 1709.46,3072.2 1737.3,3046.86 1779.5,3037.5 Z M 1781.5,3044.5 C 1811.72,3040.23 1828.22,3053.23 1831,3083.5C 1831.77,3095.2 1831.6,3106.87 1830.5,3118.5C 1800.17,3118.5 1769.83,3118.5 1739.5,3118.5C 1739.88,3099.44 1744.38,3081.44 1753,3064.5C 1759.93,3053.97 1769.43,3047.3 1781.5,3044.5 Z"/></g>
<g><path style="opacity:0.973" fill="#fefffe" d="M 1338.5,3043.5 C 1363.5,3043.5 1388.5,3043.5 1413.5,3043.5C 1413.5,3105.5 1413.5,3167.5 1413.5,3229.5C 1424.83,3229.5 1436.17,3229.5 1447.5,3229.5C 1447.5,3231.83 1447.5,3234.17 1447.5,3236.5C 1411.17,3236.5 1374.83,3236.5 1338.5,3236.5C 1338.5,3234.17 1338.5,3231.83 1338.5,3229.5C 1350.17,3229.5 1361.83,3229.5 1373.5,3229.5C 1373.5,3169.5 1373.5,3109.5 1373.5,3049.5C 1361.83,3049.5 1350.17,3049.5 1338.5,3049.5C 1338.5,3047.5 1338.5,3045.5 1338.5,3043.5 Z"/></g>
<g><path style="opacity:0.959" fill="#fefffe" d="M 1451.5,3043.5 C 1488.5,3043.5 1525.5,3043.5 1562.5,3043.5C 1562.5,3045.83 1562.5,3048.17 1562.5,3050.5C 1550.16,3050.33 1537.83,3050.5 1525.5,3051C 1544.48,3096.93 1563.64,3142.76 1583,3188.5C 1602.7,3142.26 1622.54,3096.09 1642.5,3050C 1630.17,3049.5 1617.84,3049.33 1605.5,3049.5C 1605.5,3047.5 1605.5,3045.5 1605.5,3043.5C 1628.83,3043.5 1652.17,3043.5 1675.5,3043.5C 1675.5,3045.5 1675.5,3047.5 1675.5,3049.5C 1667.17,3049.5 1658.83,3049.5 1650.5,3049.5C 1622.73,3117.04 1594.4,3184.37 1565.5,3251.5C 1564.2,3250.91 1563.37,3249.91 1563,3248.5C 1536.44,3182.39 1509.61,3116.39 1482.5,3050.5C 1472.19,3049.5 1461.85,3049.17 1451.5,3049.5C 1451.5,3047.5 1451.5,3045.5 1451.5,3043.5 Z"/></g>
</svg>
